<svg id="Layer_1" data-name="Layer 1" xmlns="http://www.w3.org/2000/svg" viewBox="0 0 110.57 110.84"><defs><style>.cls-1{fill:#3ddc84;}.cls-2{fill:#fff;}.cls-3{fill:none;}</style></defs><title>social media thumbnail</title><circle class="cls-1" cx="55.42" cy="56.09" r="52.4"/><path class="cls-2" d="M71.42,60.39a2.9,2.9,0,1,1,2.9-2.9,2.9,2.9,0,0,1-2.9,2.9m-32,0a2.9,2.9,0,1,1,2.89-2.9,2.9,2.9,0,0,1-2.89,2.9M72.46,42.94l5.79-10a1.21,1.21,0,1,0-2.09-1.21L70.3,41.87a36.32,36.32,0,0,0-29.77,0L34.67,31.71a1.21,1.21,0,0,0-2.09,1.21l5.79,10A34.17,34.17,0,0,0,20.64,70.3H90.19A34.17,34.17,0,0,0,72.46,42.94"/><circle class="cls-3" cx="55.42" cy="56.09" r="52.4" transform="translate(-17.61 85.82) rotate(-67.5)"/></svg>
