<?xml version="1.0" encoding="UTF-8"?>
<svg width="549px" height="1113px" viewBox="0 0 549 1113" version="1.1" xmlns="http://www.w3.org/2000/svg" xmlns:xlink="http://www.w3.org/1999/xlink">
    <!-- Generator: Sketch 50 (54983) - http://www.bohemiancoding.com/sketch -->
    <title>iphone-8</title>
    <desc>Created with Sketch.</desc>
    <defs>
        <path d="M543,316.11236 L543,1038 C543,1079.91708 509.869361,1113 468,1113 L81,1113 C39.1306386,1113 6,1079.91708 6,1038 L6,417.829213 L2.82984059,417.829213 C1.27342827,417.829213 6.31088724e-30,416.532997 6.31088724e-30,414.948733 L6.31088724e-30,336.359133 C6.31088724e-30,334.774868 1.27342827,333.478652 2.82984059,333.478652 L6,333.478652 L6,316.11236 L2.82984059,316.11236 C1.27342827,316.11236 6.31088724e-30,314.816143 6.31088724e-30,313.231879 L6.31088724e-30,234.642279 C6.31088724e-30,233.058014 1.27342827,231.761798 2.82984059,231.761798 L6,231.761798 L6,177.182022 L2.82086714,177.182022 C1.26939021,177.182022 6.31088724e-30,175.899303 6.31088724e-30,174.331535 L6.31088724e-30,132.895431 C6.31088724e-30,131.327663 1.26939021,130.044944 2.82086714,130.044944 L6,130.044944 L6,75 C6,33.0843398 39.1306386,0 81,0 L468,0 C509.869361,0 543,33.0843398 543,75 L543,231.761798 L544.754274,231.761798 C547.089423,231.761798 549,233.706554 549,236.083478 L549,311.790679 C549,314.167603 547.089423,316.11236 544.754274,316.11236 L543,316.11236 Z" id="path-1"></path>
        <filter x="-2.7%" y="-1.3%" width="105.5%" height="102.7%" filterUnits="objectBoundingBox" id="filter-2">
            <feGaussianBlur stdDeviation="12" in="SourceAlpha" result="shadowBlurInner1"></feGaussianBlur>
            <feOffset dx="0" dy="-6" in="shadowBlurInner1" result="shadowOffsetInner1"></feOffset>
            <feComposite in="shadowOffsetInner1" in2="SourceAlpha" operator="arithmetic" k2="-1" k3="1" result="shadowInnerInner1"></feComposite>
            <feColorMatrix values="0 0 0 0 0   0 0 0 0 0   0 0 0 0 0  0 0 0 0.05 0" type="matrix" in="shadowInnerInner1" result="shadowMatrixInner1"></feColorMatrix>
            <feMorphology radius="3" operator="erode" in="SourceAlpha" result="shadowSpreadInner2"></feMorphology>
            <feGaussianBlur stdDeviation="6" in="shadowSpreadInner2" result="shadowBlurInner2"></feGaussianBlur>
            <feOffset dx="0" dy="12" in="shadowBlurInner2" result="shadowOffsetInner2"></feOffset>
            <feComposite in="shadowOffsetInner2" in2="SourceAlpha" operator="arithmetic" k2="-1" k3="1" result="shadowInnerInner2"></feComposite>
            <feColorMatrix values="0 0 0 0 0.156862745   0 0 0 0 0.470588235   0 0 0 0 1  0 0 0 0.02 0" type="matrix" in="shadowInnerInner2" result="shadowMatrixInner2"></feColorMatrix>
            <feMerge>
                <feMergeNode in="shadowMatrixInner1"></feMergeNode>
                <feMergeNode in="shadowMatrixInner2"></feMergeNode>
            </feMerge>
        </filter>
        <path d="M234,1050 C234,1027.47492 253.474917,1008 276,1008 C301.522194,1008 321,1027.47492 321,1050 C321,1075.52219 301.522194,1095 276,1095 C253.474917,1095 234,1075.52219 234,1050" id="path-3"></path>
        <filter x="-17.8%" y="-13.2%" width="135.6%" height="135.6%" filterUnits="objectBoundingBox" id="filter-4">
            <feMorphology radius="1.5" operator="dilate" in="SourceAlpha" result="shadowSpreadOuter1"></feMorphology>
            <feOffset dx="0" dy="2" in="shadowSpreadOuter1" result="shadowOffsetOuter1"></feOffset>
            <feGaussianBlur stdDeviation="2" in="shadowOffsetOuter1" result="shadowBlurOuter1"></feGaussianBlur>
            <feColorMatrix values="0 0 0 0 0.156862745   0 0 0 0 0.470588235   0 0 0 0 1  0 0 0 0.08 0" type="matrix" in="shadowBlurOuter1" result="shadowMatrixOuter1"></feColorMatrix>
            <feOffset dx="0" dy="2" in="SourceAlpha" result="shadowOffsetOuter2"></feOffset>
            <feGaussianBlur stdDeviation="2" in="shadowOffsetOuter2" result="shadowBlurOuter2"></feGaussianBlur>
            <feColorMatrix values="0 0 0 0 0   0 0 0 0 0   0 0 0 0 0  0 0 0 0.1 0" type="matrix" in="shadowBlurOuter2" result="shadowMatrixOuter2"></feColorMatrix>
            <feMerge>
                <feMergeNode in="shadowMatrixOuter1"></feMergeNode>
                <feMergeNode in="shadowMatrixOuter2"></feMergeNode>
            </feMerge>
        </filter>
        <filter x="-19.5%" y="-14.9%" width="139.1%" height="139.1%" filterUnits="objectBoundingBox" id="filter-5">
            <feGaussianBlur stdDeviation="4.5" in="SourceAlpha" result="shadowBlurInner1"></feGaussianBlur>
            <feOffset dx="0" dy="3" in="shadowBlurInner1" result="shadowOffsetInner1"></feOffset>
            <feComposite in="shadowOffsetInner1" in2="SourceAlpha" operator="arithmetic" k2="-1" k3="1" result="shadowInnerInner1"></feComposite>
            <feColorMatrix values="0 0 0 0 0.156862745   0 0 0 0 0.470588235   0 0 0 0 1  0 0 0 0.08 0" type="matrix" in="shadowInnerInner1"></feColorMatrix>
        </filter>
    </defs>
    <g id="Page-1" stroke="none" stroke-width="1" fill="none" fill-rule="evenodd">
        <g id="iphone-8" transform="translate(-186.000000, -189.000000)">
            <g transform="translate(186.000000, 189.000000)">
                <g id="Combined-Shape">
                    <use fill="#FFFFFF" fill-rule="evenodd" xlink:href="#path-1"></use>
                    <use fill="black" fill-opacity="1" filter="url(#filter-2)" xlink:href="#path-1"></use>
                </g>
                <g id="home-button">
                    <use fill="black" fill-opacity="1" filter="url(#filter-4)" xlink:href="#path-3"></use>
                    <use fill="#FFFFFF" fill-rule="evenodd" xlink:href="#path-3"></use>
                    <use fill="black" fill-opacity="1" filter="url(#filter-5)" xlink:href="#path-3"></use>
                </g>
                <path d="M339,69 C339,70.675 337.1464,72 336,72 L258,72 C256.855,72 255,70.675 255,69 C255,67.325 256.855,66 258,66 L336,66 C337.1464,66 339,67.325 339,69 Z" id="earpiece" fill="#6E747D" opacity="0.25"></path>
                <circle id="facetime-camera" fill="#6E747D" opacity="0.25" cx="219" cy="69" r="9"></circle>
                <path d="M267,31.5 C267,27.3578765 270.358292,24 274.5,24 C278.641708,24 282,27.3578765 282,31.5 C282,35.6402673 278.641708,39 274.5,39 C270.358292,39 267,35.6402673 267,31.5 Z" id="sensor" fill="#6E747D" opacity="0.25"></path>
                <path d="M519,986.979167 C519,988.061881 517.080959,990 516,990 L33,990 C31.9190407,990 30,988.061881 30,986.979167 L30,123.020833 C30,121.938119 31.9190407,120 33,120 L516,120 C517.080959,120 519,121.938119 519,123.020833 L519,986.979167 Z" id="mask" fill="#EFEFEF"></path>
            </g>
        </g>
    </g>
</svg>